<svg aria-hidden="true" style="position: absolute; width: 0; height: 0; overflow: hidden;"><defs><linearGradient id="a"><stop offset="5%" stop-color="green"/><stop offset="95%" stop-color="gold"/></linearGradient></defs><symbol id="gradient"><rect fill="url(#a)" width="100%" height="100%"/></symbol><symbol id="video" viewBox="0 0 16 16"><path d="M8 0C3.6 0 0 3.6 0 8s3.6 8 8 8 8-3.6 8-8-3.6-8-8-8zm3.3 8.5l-4.5 3c-.1 0-.1.1-.2.1s-.2 0-.3-.1c-.2-.1-.3-.3-.3-.5V5c0-.2.1-.4.2-.5.2-.1.3-.1.5 0l4.5 3c.2.1.3.3.3.5s-.1.4-.2.5z" fill="#ff004b"/></symbol></svg>