<?xml version="1.0" encoding="UTF-8"?><!DOCTYPE svg PUBLIC "-//W3C//DTD SVG 1.1//EN" "http://www.w3.org/Graphics/SVG/1.1/DTD/svg11.dtd"><svg xmlns="http://www.w3.org/2000/svg" xmlns:xlink="http://www.w3.org/1999/xlink"><defs/><symbol id="video" viewBox="0 0 16 16"><path d="M8,2c-4.4,0-8,3.6-8,8s3.6,8,8,8s8-3.6,8-8S12.4,2,8,2z M11.3,10.5l-4.5,3 c-0.1,0-0.1,0.1-0.2,0.1s-0.2,0-0.3-0.1C6.1,13.4,6,13.2,6,13V7c0-0.2,0.1-0.4,0.2-0.5c0.2-0.1,0.3-0.1,0.5,0l4.5,3 c0.2,0.1,0.3,0.3,0.3,0.5S11.4,10.4,11.3,10.5z" fill="#ff004b" transform="translate(0 -2)"/></symbol></svg>