<svg aria-hidden="true" style="position: absolute; width: 0; height: 0; overflow: hidden;"><defs/><symbol id="popcorn" viewBox="0 0 32 32"><path d="M15.4 4.5c-2 0-3.6 1.6-3.6 3.6 0 .5.4.9.9.9s.9-.4.9-.9c0-1 .8-1.8 1.8-1.8s1.8.8 1.8 1.8c0 .5.4.9.9.9s.9-.4.9-.9c0-2-1.6-3.6-3.6-3.6"/><path d="M29.1 9c0-1.3-.9-2.5-2.1-2.8-.4-2.4-2.4-4.2-4.9-4.2q-.9 0-1.8.3C19.4.9 17.9 0 16.1 0s-3.3.9-4.2 2.3Q11 2 10.1 2C7.6 2 5.6 3.8 5.2 6.2 4 6.5 3.1 7.7 3.1 9c0 .7.3 1.4.7 1.9-.5.5-.9 1.3-.9 2.1 0 .2 0 .4.1.6l3.2 16C6.4 31 7.7 32 9.1 32h13.8c1.4 0 2.7-1 2.9-2.4l3.2-16c0-.2.1-.4.1-.6 0-.8-.3-1.5-.8-2 .5-.5.8-1.2.8-2M9 30c-.5 0-.9-.3-1-.8l-3.2-16V13c0-.5.4-1 1-1H9v.1L10 30zm6 0h-3v-.1L11 12h4zm5 0h-3V12h4zm7-16.8-3.2 16c-.1.5-.5.8-1 .8H22l1-17.9V12h3c.6 0 1 .5 1 1zM26 10H6c-.6 0-1-.4-1-1s.4-1 1-1c.3 0 .5-.1.7-.3S7 7.3 7 7c0-1.7 1.3-3 3-3 .6 0 1.2.2 1.7.5.3.2.6.2.9.1q.45-.15.6-.6c.4-1.2 1.5-2 2.8-2s2.4.8 2.8 2q.15.45.6.6c.3.1.6.1.9-.1.5-.3 1.1-.5 1.7-.5 1.7 0 3 1.3 3 3 0 .3.1.5.3.7s.4.3.7.3c.6 0 1 .4 1 1s-.4 1-1 1"/></symbol><symbol id="smiley-surprised" viewBox="0 0 41 40"><title>surprised</title><g transform="translate(.216)"><circle cx="20" cy="20" r="20" fill="#ffd93b"/><path fill="#f4c534" d="M40 20c0 11-9 20-20 20-6.3 0-11.9-2.9-15.6-7.4C7.9 35.3 12.2 37 17 37c11 0 20-8.9 20-20 0-4.8-1.7-9.1-4.4-12.6C37.1 8.1 40 13.7 40 20"/><circle cx="20" cy="31.2" r="3.5" fill="#3e4347"/><path fill="#fff" d="M31.3 19.5c0 2.5-2 4.5-4.5 4.5s-4.5-2-4.5-4.5 2-4.5 4.5-4.5 4.5 2 4.5 4.5"/><circle cx="26.7" cy="19.5" r="2.1" fill="#3e4347"/><path fill="#5a5f63" d="M27.9 19.3c-.2.1-.5 0-.7-.2s-.2-.5 0-.7c.2-.1.5 0 .7.2.1.3.1.6 0 .7"/><path fill="#e9b02c" d="M32.4 13.8c.1.7.1 1.5-.1 2.1-.9-2.5-3.4-4-6.1-3.5-1 .2-1.5-1.1-.6-1.6.7-.4 1.4-.7 2.3-.7 2.1 0 4.1 1.6 4.5 3.7"/><path fill="#fff" d="M8.7 19.5c0 2.5 2 4.5 4.5 4.5s4.5-2 4.5-4.5-2-4.5-4.5-4.5-4.5 2-4.5 4.5"/><circle cx="13.3" cy="19.5" r="2.1" fill="#3e4347"/><path fill="#5a5f63" d="M12.1 19.3c.2.1.5 0 .7-.2s.2-.5 0-.7c-.2-.1-.5 0-.7.2-.2.3-.1.6 0 .7"/><path fill="#e9b02c" d="M7.6 13.8c-.1.7-.1 1.5.1 2.1.9-2.5 3.4-4 6.1-3.5 1 .2 1.5-1.1.6-1.6-.7-.4-1.4-.7-2.3-.7-2.1 0-4.1 1.6-4.5 3.7"/></g></symbol></svg>