<svg aria-hidden="true" style="position: absolute; width: 0; height: 0; overflow: hidden;"><defs/><symbol id="tram" viewBox="0 0 512 512"><path d="M288 64c17.7 0 32-14.3 32-32S305.7 0 288 0s-32 14.3-32 32 14.3 32 32 32zm223.5-12.1c-2.3-8.6-11-13.6-19.6-11.3l-480 128c-8.5 2.3-13.6 11-11.3 19.6C2.5 195.3 8.9 200 16 200c1.4 0 2.8-.2 4.1-.5L240 140.8V224H64c-17.7 0-32 14.3-32 32v224c0 17.7 14.3 32 32 32h384c17.7 0 32-14.3 32-32V256c0-17.7-14.3-32-32-32H272v-91.7l228.1-60.8c8.6-2.3 13.6-11.1 11.4-19.6zM176 384H80v-96h96v96zm160-96h96v96h-96v-96zm-32 0v96h-96v-96h96zM192 96c17.7 0 32-14.3 32-32s-14.3-32-32-32-32 14.3-32 32 14.3 32 32 32z"/></symbol><symbol id="video" viewBox="0 0 16 16"><path d="M8 0C3.6 0 0 3.6 0 8s3.6 8 8 8 8-3.6 8-8-3.6-8-8-8zm3.3 8.5l-4.5 3c-.1 0-.1.1-.2.1s-.2 0-.3-.1c-.2-.1-.3-.3-.3-.5V5c0-.2.1-.4.2-.5.2-.1.3-.1.5 0l4.5 3c.2.1.3.3.3.5s-.1.4-.2.5z" fill="#ff004b"/></symbol></svg>