<svg aria-hidden="true" style="position: absolute; width: 0; height: 0; overflow: hidden;"><defs/><symbol id="hand-hello" viewBox="0 0 50 50"><path d="M6.7 12.651c1.3-.9 3.3-.7 4.4.2l-1.3-2c-1.1-1.5-.7-3.2.8-4.3 1.5-1.1 3.7-.7 4.7.8l12.2 17.4h.1l-11-16.3c-1.1-1.6-.9-3.5.7-4.6 1.6-1.1 3.7-.7 4.8.8l14.4 20.4c1.1 1.6.6 3.7-1 4.8-.3.2-.6.3-.8.4v12.7H20.8v-4.3c-.2-.2-1.3-1.1-1.5-1.3l-13.4-19.9c-1.1-1.6-.7-3.7.8-4.8" fill="#e0ab6f"/><path d="M3.7 23.951s-1.6-2.3.7-3.9 3.9.7 3.9.7l7.3 10.6c.2-.4.5-.8.8-1.2l-10.1-14.7s-1.6-2.3.7-3.9 3.9.7 3.9.7l9.5 13.9c.4-.3.7-.6 1.1-.9l-11-16.1s-1.6-2.3.7-3.9 3.9.7 3.9.7l11 16.1c.4-.2.8-.5 1.2-.7L17 6.451s-1.6-2.3.7-3.9 3.9.7 3.9.7l10.9 15.9.9 1.3.8 1.1c-6.9 4.7-7.5 13.6-3.6 19.3.8 1.1 1.9.4 1.9.4-4.7-6.9-3.3-14.6 3.6-19.3l-2-10.1s-.8-2.7 1.9-3.4c2.7-.8 3.4 1.9 3.4 1.9l2.3 6.9c.9 2.8 1.9 5.5 3.2 8.1 3.7 7.3 1.5 16.4-5.5 21.2-7.6 5.2-17.9 3.3-23.1-4.3-.3-.4-.5-.8-.7-1.2h-.1l-11.8-17.1z" fill="#ffcf99"/><path d="M16.6 44.351c-5.5 0-11.1-5.6-11.1-11.1 0-.8-.6-1.4-1.3-1.4s-1.4.6-1.4 1.4c0 8.3 5.6 13.9 13.9 13.9.8 0 1.4-.7 1.4-1.4s-.7-1.4-1.5-1.4" fill="#ff004b"/><path d="M9.7 47.051c-4.2 0-6.9-2.8-6.9-6.9 0-.8-.6-1.4-1.4-1.4s-1.4.6-1.4 1.4c0 5.5 4.2 9.7 9.7 9.7.8 0 1.4-.6 1.4-1.4s-.6-1.4-1.4-1.4m23.6-44.3c-.8 0-1.4.6-1.4 1.4s.6 1.4 1.4 1.4c5.5 0 11.1 5 11.1 11.1 0 .8.6 1.4 1.4 1.4s1.4-.6 1.4-1.4c-.1-7.7-5.6-13.9-13.9-13.9" fill="#ff004b"/><path d="M40.2-.049c-.8 0-1.4.6-1.4 1.3 0 .8.6 1.4 1.4 1.4 4.2 0 6.9 3.1 6.9 6.9 0 .8.7 1.4 1.4 1.4s1.3-.6 1.3-1.4c0-5.2-4.1-9.6-9.6-9.6" fill="#ff004b"/></symbol><symbol id="smiley-sad" viewBox="0 0 40 40"><path class="st0" d="M39.9 19.961c0 11-8.9 20-19.9 20-11.1 0-20-9-20-20s8.9-20 20-20c11 0 19.9 9 19.9 20" fill="#ffcc4d"/><path d="M15.5 18.261c0 2.1-1.2 3.9-2.8 3.9s-2.7-1.7-2.7-3.9c0-2.1 1.2-3.9 2.8-3.9s2.7 1.8 2.7 3.9M31.234 18.322c0 2.1-1.3 3.9-2.8 3.9s-2.8-1.8-2.8-3.9c0-2.1 1.2-3.9 2.8-3.9s2.8 1.7 2.8 3.9M26 30.961s-1.3-4.9-6.1-4.9-6.1 4.8-6.1 4.9c-.1.2 0 .5.3.6.2.1.5.1.7-.1 0 0 1.1-1 5.2-1 4 0 5.1.9 5.2 1 .1.1.2.2.4.2.1 0 .2 0 .3-.1.1-.2.2-.4.1-.6" fill="#664500"/><path class="st2" d="M11.1 33.261c0 3.1-2.5 5.5-5.5 5.5s-5.6-2.4-5.6-5.5 4.4-11.1 5.5-11.1 5.6 8 5.6 11.1" fill="#5dadec"/><path d="M33.258 14.425c-6.2 0-8.7-4.8-8.8-5-.3-.5-.1-1.2.5-1.5.5-.3 1.2-.1 1.5.5.1.2 2 3.8 6.8 3.8.6 0 1.1.5 1.1 1.1 0 .6-.5 1.1-1.1 1.1m-26.6 0c-.6 0-1.1-.5-1.1-1.1s.5-1.1 1.1-1.1c5.6 0 6.6-3.5 6.7-3.6.1-.6.8-1 1.3-.8.6.2.9.7.8 1.3 0 .2-1.4 5.3-8.8 5.3" fill="#664500"/></symbol><symbol id="tv-grid" viewBox="0 0 58 48"><path class="st0" fill="#38454f" d="M0 .5h58v38H0z"/><path class="st1" d="M14 16.5h-3c-.6 0-1-.5-1-1v-2.9c0-.6.5-1 1-1h3c.6 0 1 .5 1 1v2.9c0 .5-.5 1-1 1z" fill="#61b872"/><path class="st2" d="M25 16.5h-3c-.6 0-1-.5-1-1v-2.9c0-.6.5-1 1-1h3c.6 0 1 .5 1 1v2.9c0 .5-.5 1-1 1z" fill="#48a0dc"/><path class="st3" d="M36 16.5h-3c-.6 0-1-.5-1-1v-2.9c0-.6.5-1 1-1h3c.6 0 1 .5 1 1v2.9c0 .5-.5 1-1 1z" fill="#ebba16"/><path class="st4" d="M47 16.5h-3c-.6 0-1-.5-1-1v-2.9c0-.6.5-1 1-1h3c.6 0 1 .5 1 1v2.9c0 .5-.5 1-1 1z" fill="#bf4d90"/><path class="st5" d="M14 27.5h-3c-.6 0-1-.5-1-1v-2.9c0-.6.5-1 1-1h3c.6 0 1 .5 1 1v2.9c0 .5-.5 1-1 1z" fill="#dd352e"/><path class="st6" d="M25 27.5h-3c-.6 0-1-.5-1-1v-2.9c0-.6.5-1 1-1h3c.6 0 1 .5 1 1v2.9c0 .5-.5 1-1 1z" fill="#a4e869"/><path class="st7" d="M36 27.5h-3c-.6 0-1-.5-1-1v-2.9c0-.6.5-1 1-1h3c.6 0 1 .5 1 1v2.9c0 .5-.5 1-1 1z" fill="#50508a"/><path class="st8" d="M47 27.5h-3c-.6 0-1-.5-1-1v-2.9c0-.6.5-1 1-1h3c.6 0 1 .5 1 1v2.9c0 .5-.5 1-1 1z" fill="#be7c6d"/><path class="st9" fill="#afb6bb" d="M30 44.5v-6h-2v6H15v3h28v-3z"/></symbol><symbol id="heart" viewBox="0 0 13 11"><path d="M6.2 2.1C5.6.8 4.4 0 3.3 0 1.2 0 .2 1.7.2 3.4s1 3.5 3 5.3C4.6 10 6 10.9 6.1 10.9h.2c.1 0 .1 0 .2-.1.2-.2 5.9-4 5.9-7.7C12.4 1 10.9 0 9.3 0 8 0 6.8.8 6.2 2.1z" fill="#ff004b"/></symbol></svg>