<svg aria-hidden="true" style="position: absolute; width: 0; height: 0; overflow: hidden;"><defs><linearGradient id="a"><stop offset="5%" stop-color="green"/><stop offset="95%" stop-color="gold"/></linearGradient></defs><symbol id="gradient"><rect fill="url(#a)" width="100%" height="100%"/></symbol><symbol id="heart" viewBox="0 0 13 11"><path d="M6.2 2.1C5.6.8 4.4 0 3.3 0 1.2 0 .2 1.7.2 3.4s1 3.5 3 5.3C4.6 10 6 10.9 6.1 10.9h.2c.1 0 .1 0 .2-.1.2-.2 5.9-4 5.9-7.7C12.4 1 10.9 0 9.3 0 8 0 6.8.8 6.2 2.1z" fill="#ff004b"/></symbol><symbol id="smiley" viewBox="0 0 496 512"><path fill="#ffcc4d" d="M248 8C111 8 0 119 0 256s111 248 248 248 248-111 248-248S385 8 248 8zm0 448c-110.3 0-200-89.7-200-200S137.7 56 248 56s200 89.7 200 200-89.7 200-200 200zm105.6-151.4c-25.9 8.3-64.4 13.1-105.6 13.1s-79.6-4.8-105.6-13.1c-9.9-3.1-19.4 5.4-17.7 15.3 7.9 47.1 71.3 80 123.3 80s115.3-32.9 123.3-80c1.6-9.8-7.7-18.4-17.7-15.3zM168 240c17.7 0 32-14.3 32-32s-14.3-32-32-32-32 14.3-32 32 14.3 32 32 32zm160 0c17.7 0 32-14.3 32-32s-14.3-32-32-32-32 14.3-32 32 14.3 32 32 32z"/></symbol></svg>