<svg version="1.1" id="Calque_1" xmlns="http://www.w3.org/2000/svg" x="0" y="0" viewBox="0 0 50 50" xml:space="preserve"><style>.st2{fill:#ff004b}</style><g transform="translate(0 -1)"><g id="Group" transform="matrix(1 0 0 -1 0 50.951)"><g id="Shape"><path d="M6.7 37.3c1.3.9 3.3.7 4.4-.2l-1.3 2c-1.1 1.5-.7 3.2.8 4.3 1.5 1.1 3.7.7 4.7-.8l12.2-17.4h.1l-11 16.3c-1.1 1.6-.9 3.5.7 4.6 1.6 1.1 3.7.7 4.8-.8l14.4-20.4c1.1-1.6.6-3.7-1-4.8-.3-.2-.6-.3-.8-.4V7H20.8v4.3c-.2.2-1.3 1.1-1.5 1.3L5.9 32.5c-1.1 1.6-.7 3.7.8 4.8" fill="#e0ab6f"/><path d="M3.7 26s-1.6 2.3.7 3.9 3.9-.7 3.9-.7l7.3-10.6c.2.4.5.8.8 1.2L6.3 34.5s-1.6 2.3.7 3.9 3.9-.7 3.9-.7l9.5-13.9c.4.3.7.6 1.1.9l-11 16.1s-1.6 2.3.7 3.9 3.9-.7 3.9-.7l11-16.1c.4.2.8.5 1.2.7L17 43.5s-1.6 2.3.7 3.9 3.9-.7 3.9-.7l10.9-15.9.9-1.3.8-1.1c-6.9-4.7-7.5-13.6-3.6-19.3.8-1.1 1.9-.4 1.9-.4-4.7 6.9-3.3 14.6 3.6 19.3l-2 10.1s-.8 2.7 1.9 3.4c2.7.8 3.4-1.9 3.4-1.9l2.3-6.9c.9-2.8 1.9-5.5 3.2-8.1 3.7-7.3 1.5-16.4-5.5-21.2C31.8-1.8 21.5.1 16.3 7.7c-.3.4-.5.8-.7 1.2h-.1L3.7 26z" fill="#ffcf99"/><path class="st2" d="M16.6 5.6c-5.5 0-11.1 5.6-11.1 11.1 0 .8-.6 1.4-1.3 1.4s-1.4-.6-1.4-1.4c0-8.3 5.6-13.9 13.9-13.9.8 0 1.4.7 1.4 1.4s-.7 1.4-1.5 1.4"/><path class="st2" d="M9.7 2.9c-4.2 0-6.9 2.8-6.9 6.9 0 .8-.6 1.4-1.4 1.4S0 10.6 0 9.8C0 4.3 4.2.1 9.7.1c.8 0 1.4.6 1.4 1.4s-.6 1.4-1.4 1.4m23.6 44.3c-.8 0-1.4-.6-1.4-1.4s.6-1.4 1.4-1.4c5.5 0 11.1-5 11.1-11.1 0-.8.6-1.4 1.4-1.4s1.4.6 1.4 1.4c-.1 7.7-5.6 13.9-13.9 13.9"/><path class="st2" d="M40.2 50c-.8 0-1.4-.6-1.4-1.3 0-.8.6-1.4 1.4-1.4 4.2 0 6.9-3.1 6.9-6.9 0-.8.7-1.4 1.4-1.4s1.3.6 1.3 1.4c0 5.2-4.1 9.6-9.6 9.6"/></g></g></g></svg>