<?xml version="1.0" encoding="utf-8"?>
<!-- Generator: Adobe Illustrator 22.1.0, SVG Export Plug-In . SVG Version: 6.00 Build 0)  -->
<svg version="1.1" id="Calque_1" xmlns="http://www.w3.org/2000/svg" xmlns:xlink="http://www.w3.org/1999/xlink" x="0px" y="0px"
	 viewBox="0 0 13 11" style="enable-background:new 0 0 13 11;" xml:space="preserve">
<style type="text/css">
	.st0{fill:#FF004B;}
</style>
<title>np_heart_2521675_000000</title>
<desc>Created with Sketch.</desc>
<g id="OLD">
	<g id="iPhone-SE-Copy-3" transform="translate(-114.000000, -237.000000)">
		<g id="Group-4" transform="translate(58.000000, 235.000000)">
			<g id="np_heart_2521675_000000" transform="translate(56.000000, 2.000000)">
				<path id="Path" class="st0" d="M6.2,2.1C5.6,0.8,4.4,0,3.3,0C1.2,0,0.2,1.7,0.2,3.4c0,1.7,1,3.5,3,5.3C4.6,10,6,10.9,6.1,10.9
					c0,0,0.1,0,0.2,0c0.1,0,0.1,0,0.2-0.1c0.2-0.2,5.9-4,5.9-7.7c0-2.1-1.5-3.1-3.1-3.1C8,0,6.8,0.8,6.2,2.1z"/>
			</g>
		</g>
	</g>
</g>
</svg>
