<svg xmlns="http://www.w3.org/2000/svg" viewBox="0 0 259.8 182.2"><path fill="#ECF2FB" d="M109.6 6.3l2.4 1.1c18.8 8.7 40.2 14.4 64.1 17.2 47.7 5.6 82 48.5 77 96.2-3.9 37.3-37.3 64.3-74.6 60.4-1.2-.1-2.5-.3-3.7-.5-15.5-2.5-32.7-2.5-51.5 0-3 .4-6 .7-8.9 1-54 5.1-101.8-34.6-106.9-88.5v-.1c-.1-1.5-.2-2.9-.3-4.4l-.6-12C4.7 36.4 35.9 2 76.3.1c11.4-.6 22.8 1.6 33.3 6.2z"/><path d="M5.9 67h248c3.3 0 5.9 2.6 5.9 5.9v42.4c0 3.3-2.6 5.9-5.9 5.9H5.9c-3.3 0-5.9-2.6-5.9-5.9V72.9C0 69.6 2.6 67 5.9 67z"/><path fill="#FFF" d="M5.9 67h248c3.3 0 5.9 2.6 5.9 5.9v42.4c0 3.3-2.6 5.9-5.9 5.9H5.9c-3.3 0-5.9-2.6-5.9-5.9V72.9C0 69.6 2.6 67 5.9 67z"/><linearGradient id="a" gradientUnits="userSpaceOnUse" x1="-262.596" y1="479.966" x2="-261.826" y2="480.966" gradientTransform="matrix(10.8 0 0 12.27 3010.4 -5800.68)"><stop offset="0" stop-color="#ff0053"/><stop offset="1" stop-color="#ee5b35"/></linearGradient><path fill="url(#a)" d="M175.2 98.3h2c.3 1.1 1.5 1.7 2.6 1.4.7-.2 1.2-.7 1.4-1.4h2c.7 0 1.2-.5 1.4-1.1.1-.7-.2-1.3-.8-1.6l-.5-.2v-2.2c0-.8-.2-1.6-.6-2.2-.4-.7-1-1.2-1.7-1.6v-.1c0-.9-.8-1.7-1.7-1.7-.9 0-1.7.8-1.7 1.7-.7.3-1.3.9-1.7 1.5-.4.7-.6 1.4-.6 2.2v2.3l-.5.2c-.7.3-1 1.2-.7 1.9 0 .5.5.9 1.1.9zm4 .5c-.4 0-.7-.2-.9-.5h1.8c-.2.3-.6.5-.9.5zm0-10.1c.2 0 .5.1.6.4h-1.1c0-.3.2-.4.5-.4zm-4.2 7.9l.8-.4c.2-.1.3-.3.3-.5v-2.6c0-.8.3-1.6.9-2.1.6-.6 1.3-.9 2.1-.9h.1c1.6.1 2.9 1.5 2.9 3.1v2.5c0 .2.1.4.3.5l.8.4c.2.1.2.3.2.5-.1.1-.2.2-.3.2h-8c-.2 0-.3-.1-.3-.3 0-.2 0-.4.2-.4z"/><g fill="#141414" font-family="'Montserrat-Medium'" font-size="5.89"><text transform="translate(190.94 92.65)">M</text><text transform="translate(196.57 92.65)">’a</text><text transform="translate(201.31 92.65)">v</text><text transform="translate(204.51 92.65)">e</text><text transform="translate(208.12 92.65)">r</text><text transform="translate(210.62 92.65)">tir 30 minu</text><text transform="translate(243.45 92.65)">t</text><text transform="translate(245.78 92.65)">es</text><text transform="translate(190.94 99.65)">a</text><text transform="translate(194.4 99.65)">v</text><text transform="translate(197.6 99.65)">ant le début</text></g><path fill="#B8C6DE" d="M18.3 89.6h31.8c1.6 0 3 1.3 3 2.9v6.9c0 1.6-1.3 2.9-3 2.9H18.3c-1.6 0-2.9-1.3-2.9-2.9v-6.9c-.1-1.6 1.2-2.9 2.9-2.9z"/><path fill="#AAB8D0" d="M18.3 89.6H50c1.6 0 2.9 1.4 2.9 3 0 1.4-1 2.5-2.3 2.8l-31.7 7.1c-1.6.4-3.2-.6-3.5-2.2-.1-.2-.1-.4-.1-.6v-7.1c0-1.7 1.3-3 3-3z"/><path fill="#B8C6DE" d="M66 82.9h77.8c1 0 1.8.8 1.8 1.7 0 1-.8 1.8-1.8 1.8H66c-1 0-1.8-.8-1.8-1.8 0-.9.8-1.7 1.8-1.7zM66 91.2h43.6c1 0 1.8.8 1.8 1.8s-.8 1.8-1.8 1.8H66c-1 0-1.8-.8-1.8-1.8s.8-1.8 1.8-1.8z"/><path fill="#D8D8D8" d="M163.2 67h1.2v54.2h-1.2z"/></svg>