<svg version="1.1" id="Calque_1" xmlns="http://www.w3.org/2000/svg" x="0" y="0" viewBox="0 0 40 40" xml:space="preserve"><style>.st1{fill:#664500}</style><g id="popin-404" transform="translate(-833 -564)"><g transform="translate(833 564)" id="Group-3"><g transform="matrix(1 0 0 -1 0 39.961)" id="Group"><path id="Path" class="st0" d="M39.9 20C39.9 9 31 0 20 0 8.9 0 0 9 0 20s8.9 20 20 20c11 0 19.9-9 19.9-20" fill="#ffcc4d"/><path id="SVGCleanerId_0" class="st1" d="M15.5 21.7c0-2.1-1.2-3.9-2.8-3.9S10 19.5 10 21.7c0 2.1 1.2 3.9 2.8 3.9s2.7-1.8 2.7-3.9"/><path class="st1" d="M5.6 3.9C5.6 1.8 4.3 0 2.8 0S0 1.8 0 3.9C0 6 1.2 7.8 2.8 7.8s2.8-1.7 2.8-3.9" transform="translate(25.634 17.739)" id="SVGCleanerId_0_1_"/><path id="Path_1_" class="st1" d="M26 9s-1.3 4.9-6.1 4.9-6.1-4.8-6.1-4.9c-.1-.2 0-.5.3-.6.2-.1.5-.1.7.1 0 0 1.1 1 5.2 1 4 0 5.1-.9 5.2-1 .1-.1.2-.2.4-.2.1 0 .2 0 .3.1.1.2.2.4.1.6"/><path id="Path_2_" class="st2" d="M11.1 6.7c0-3.1-2.5-5.5-5.5-5.5S0 3.6 0 6.7s4.4 11.1 5.5 11.1 5.6-8 5.6-11.1" fill="#5dadec"/><path class="st1" d="M27.8 0c-6.2 0-8.7 4.8-8.8 5-.3.5-.1 1.2.5 1.5.5.3 1.2.1 1.5-.5.1-.2 2-3.8 6.8-3.8.6 0 1.1-.5 1.1-1.1 0-.6-.5-1.1-1.1-1.1M1.2 0C.6 0 .1.5.1 1.1s.5 1.1 1.1 1.1c5.6 0 6.6 3.5 6.7 3.6.1.6.8 1 1.3.8.6-.2.9-.7.8-1.3C10 5.1 8.6 0 1.2 0" transform="translate(5.458 25.536)" id="Path_3_"/></g></g></g></svg>