<?xml version="1.0" encoding="utf-8"?>
<!-- Generator: Adobe Illustrator 22.1.0, SVG Export Plug-In . SVG Version: 6.00 Build 0)  -->
<svg version="1.1" id="Calque_1"
	xmlns="http://www.w3.org/2000/svg"
	xmlns:xlink="http://www.w3.org/1999/xlink" x="0px" y="0px"
	 viewBox="0 0 41 40" style="enable-background:new 0 0 41 40;" xml:space="preserve">
	<style type="text/css">
	.st0{fill:#FFD93B;}
	.st1{fill:#F4C534;}
	.st2{fill:#3E4347;}
	.st3{fill:#FFFFFF;}
	.st4{fill:#5A5F63;}
	.st5{fill:#E9B02C;}
</style>
	<title>surprised</title>
	<desc>Created with Sketch.</desc>
	<g id="Parcours-tests-utilisateurs">
		<g id="Recuperation-de-grille" transform="translate(-779.000000, -558.000000)">
			<g id="Group-4" transform="translate(536.000000, 518.000000)">
				<g id="surprised" transform="translate(243.215686, 40.000000)">
					<circle id="Oval" class="st0" cx="20" cy="20" r="20"/>
					<path id="Path" class="st1" d="M40,20c0,11-9,20-20,20c-6.3,0-11.9-2.9-15.6-7.4C7.9,35.3,12.2,37,17,37c11,0,20-8.9,20-20
					c0-4.8-1.7-9.1-4.4-12.6C37.1,8.1,40,13.7,40,20z"/>
					<circle id="Oval_1_" class="st2" cx="20" cy="31.2" r="3.5"/>
					<path id="Path_1_" class="st3" d="M31.3,19.5c0,2.5-2,4.5-4.5,4.5s-4.5-2-4.5-4.5c0-2.5,2-4.5,4.5-4.5S31.3,17,31.3,19.5z"/>
					<circle id="Oval_2_" class="st2" cx="26.7" cy="19.5" r="2.1"/>
					<path id="Path_2_" class="st4" d="M27.9,19.3c-0.2,0.1-0.5,0-0.7-0.2c-0.2-0.2-0.2-0.5,0-0.7c0.2-0.1,0.5,0,0.7,0.2
					C28,18.9,28,19.2,27.9,19.3z"/>
					<path id="Path_3_" class="st5" d="M32.4,13.8c0.1,0.7,0.1,1.5-0.1,2.1c-0.9-2.5-3.4-4-6.1-3.5l0,0c-1,0.2-1.5-1.1-0.6-1.6
					c0.7-0.4,1.4-0.7,2.3-0.7C30,10.1,32,11.7,32.4,13.8z"/>
					<path id="Path_4_" class="st3" d="M8.7,19.5c0,2.5,2,4.5,4.5,4.5s4.5-2,4.5-4.5c0-2.5-2-4.5-4.5-4.5S8.7,17,8.7,19.5z"/>
					<circle id="Oval_3_" class="st2" cx="13.3" cy="19.5" r="2.1"/>
					<path id="Path_5_" class="st4" d="M12.1,19.3c0.2,0.1,0.5,0,0.7-0.2c0.2-0.2,0.2-0.5,0-0.7c-0.2-0.1-0.5,0-0.7,0.2
					C11.9,18.9,12,19.2,12.1,19.3z"/>
					<path id="Path_6_" class="st5" d="M7.6,13.8c-0.1,0.7-0.1,1.5,0.1,2.1c0.9-2.5,3.4-4,6.1-3.5l0,0c1,0.2,1.5-1.1,0.6-1.6
					c-0.7-0.4-1.4-0.7-2.3-0.7C10,10.1,8,11.7,7.6,13.8z"/>
				</g>
			</g>
		</g>
	</g>
</svg>
