<svg xmlns="http://www.w3.org/2000/svg" viewBox="0 0 58 48"><path class="st0" fill="#38454f" d="M0 .5h58v38H0z"/><path class="st1" d="M14 16.5h-3c-.6 0-1-.5-1-1v-2.9c0-.6.5-1 1-1h3c.6 0 1 .5 1 1v2.9c0 .5-.5 1-1 1z" fill="#61b872"/><path class="st2" d="M25 16.5h-3c-.6 0-1-.5-1-1v-2.9c0-.6.5-1 1-1h3c.6 0 1 .5 1 1v2.9c0 .5-.5 1-1 1z" fill="#48a0dc"/><path class="st3" d="M36 16.5h-3c-.6 0-1-.5-1-1v-2.9c0-.6.5-1 1-1h3c.6 0 1 .5 1 1v2.9c0 .5-.5 1-1 1z" fill="#ebba16"/><path class="st4" d="M47 16.5h-3c-.6 0-1-.5-1-1v-2.9c0-.6.5-1 1-1h3c.6 0 1 .5 1 1v2.9c0 .5-.5 1-1 1z" fill="#bf4d90"/><path class="st5" d="M14 27.5h-3c-.6 0-1-.5-1-1v-2.9c0-.6.5-1 1-1h3c.6 0 1 .5 1 1v2.9c0 .5-.5 1-1 1z" fill="#dd352e"/><path class="st6" d="M25 27.5h-3c-.6 0-1-.5-1-1v-2.9c0-.6.5-1 1-1h3c.6 0 1 .5 1 1v2.9c0 .5-.5 1-1 1z" fill="#a4e869"/><path class="st7" d="M36 27.5h-3c-.6 0-1-.5-1-1v-2.9c0-.6.5-1 1-1h3c.6 0 1 .5 1 1v2.9c0 .5-.5 1-1 1z" fill="#50508a"/><path class="st8" d="M47 27.5h-3c-.6 0-1-.5-1-1v-2.9c0-.6.5-1 1-1h3c.6 0 1 .5 1 1v2.9c0 .5-.5 1-1 1z" fill="#be7c6d"/><path class="st9" fill="#afb6bb" d="M30 44.5v-6h-2v6H15v3h28v-3z"/></svg>