<?xml version="1.0" encoding="UTF-8"?><!DOCTYPE svg PUBLIC "-//W3C//DTD SVG 1.1//EN" "http://www.w3.org/Graphics/SVG/1.1/DTD/svg11.dtd"><svg xmlns="http://www.w3.org/2000/svg" xmlns:xlink="http://www.w3.org/1999/xlink"><defs/><symbol id="hand-hello" viewBox="0 0 50 50"><style>.st2{fill:#ff004b}</style><g transform="translate(0 -1)"><g id="Group" transform="matrix(1 0 0 -1 0 50.951)"><g id="Shape"><path class="st0" d="M6.7 37.3c1.3.9 3.3.7 4.4-.2l-1.3 2c-1.1 1.5-.7 3.2.8 4.3 1.5 1.1 3.7.7 4.7-.8l12.2-17.4h.1l-11 16.3c-1.1 1.6-.9 3.5.7 4.6 1.6 1.1 3.7.7 4.8-.8l14.4-20.4c1.1-1.6.6-3.7-1-4.8-.3-.2-.6-.3-.8-.4V7H20.8v4.3c-.2.2-1.3 1.1-1.5 1.3L5.9 32.5c-1.1 1.6-.7 3.7.8 4.8" fill="#e0ab6f"/><path class="st1" d="M3.7 26s-1.6 2.3.7 3.9 3.9-.7 3.9-.7l7.3-10.6c.2.4.5.8.8 1.2L6.3 34.5s-1.6 2.3.7 3.9 3.9-.7 3.9-.7l9.5-13.9c.4.3.7.6 1.1.9l-11 16.1s-1.6 2.3.7 3.9 3.9-.7 3.9-.7l11-16.1c.4.2.8.5 1.2.7L17 43.5s-1.6 2.3.7 3.9 3.9-.7 3.9-.7l10.9-15.9.9-1.3.8-1.1c-6.9-4.7-7.5-13.6-3.6-19.3.8-1.1 1.9-.4 1.9-.4-4.7 6.9-3.3 14.6 3.6 19.3l-2 10.1s-.8 2.7 1.9 3.4c2.7.8 3.4-1.9 3.4-1.9l2.3-6.9c.9-2.8 1.9-5.5 3.2-8.1 3.7-7.3 1.5-16.4-5.5-21.2C31.8-1.8 21.5.1 16.3 7.7c-.3.4-.5.8-.7 1.2h-.1L3.7 26z" fill="#ffcf99"/><path class="st2" d="M16.6 5.6c-5.5 0-11.1 5.6-11.1 11.1 0 .8-.6 1.4-1.3 1.4s-1.4-.6-1.4-1.4c0-8.3 5.6-13.9 13.9-13.9.8 0 1.4.7 1.4 1.4s-.7 1.4-1.5 1.4"/><path class="st2" d="M9.7 2.9c-4.2 0-6.9 2.8-6.9 6.9 0 .8-.6 1.4-1.4 1.4S0 10.6 0 9.8C0 4.3 4.2.1 9.7.1c.8 0 1.4.6 1.4 1.4s-.6 1.4-1.4 1.4m23.6 44.3c-.8 0-1.4-.6-1.4-1.4s.6-1.4 1.4-1.4c5.5 0 11.1-5 11.1-11.1 0-.8.6-1.4 1.4-1.4s1.4.6 1.4 1.4c-.1 7.7-5.6 13.9-13.9 13.9"/><path class="st2" d="M40.2 50c-.8 0-1.4-.6-1.4-1.3 0-.8.6-1.4 1.4-1.4 4.2 0 6.9-3.1 6.9-6.9 0-.8.7-1.4 1.4-1.4s1.3.6 1.3 1.4c0 5.2-4.1 9.6-9.6 9.6"/></g></g></g></symbol></svg><?xml version="1.0" encoding="UTF-8"?><!DOCTYPE svg PUBLIC "-//W3C//DTD SVG 1.1//EN" "http://www.w3.org/Graphics/SVG/1.1/DTD/svg11.dtd"><svg xmlns="http://www.w3.org/2000/svg" xmlns:xlink="http://www.w3.org/1999/xlink"><defs/><symbol id="smiley-sad" viewBox="0 0 40 40"><style>.st1{fill:#664500}</style><g id="popin-404" transform="translate(-833 -564)"><g transform="translate(833 564)" id="Group-3"><g transform="matrix(1 0 0 -1 0 39.961)" id="Group"><path id="Path" class="st0" d="M39.9 20C39.9 9 31 0 20 0 8.9 0 0 9 0 20s8.9 20 20 20c11 0 19.9-9 19.9-20" fill="#ffcc4d"/><path id="SVGCleanerId_0" class="st1" d="M15.5 21.7c0-2.1-1.2-3.9-2.8-3.9S10 19.5 10 21.7c0 2.1 1.2 3.9 2.8 3.9s2.7-1.8 2.7-3.9"/><path class="st1" d="M5.6 3.9C5.6 1.8 4.3 0 2.8 0S0 1.8 0 3.9C0 6 1.2 7.8 2.8 7.8s2.8-1.7 2.8-3.9" transform="translate(25.634 17.739)" id="SVGCleanerId_0_1_"/><path id="Path_1_" class="st1" d="M26 9s-1.3 4.9-6.1 4.9-6.1-4.8-6.1-4.9c-.1-.2 0-.5.3-.6.2-.1.5-.1.7.1 0 0 1.1 1 5.2 1 4 0 5.1-.9 5.2-1 .1-.1.2-.2.4-.2.1 0 .2 0 .3.1.1.2.2.4.1.6"/><path id="Path_2_" class="st2" d="M11.1 6.7c0-3.1-2.5-5.5-5.5-5.5S0 3.6 0 6.7s4.4 11.1 5.5 11.1 5.6-8 5.6-11.1" fill="#5dadec"/><path class="st1" d="M27.8 0c-6.2 0-8.7 4.8-8.8 5-.3.5-.1 1.2.5 1.5.5.3 1.2.1 1.5-.5.1-.2 2-3.8 6.8-3.8.6 0 1.1-.5 1.1-1.1 0-.6-.5-1.1-1.1-1.1M1.2 0C.6 0 .1.5.1 1.1s.5 1.1 1.1 1.1c5.6 0 6.6 3.5 6.7 3.6.1.6.8 1 1.3.8.6-.2.9-.7.8-1.3C10 5.1 8.6 0 1.2 0" transform="translate(5.458 25.536)" id="Path_3_"/></g></g></g></symbol></svg><?xml version="1.0" encoding="UTF-8"?><!DOCTYPE svg PUBLIC "-//W3C//DTD SVG 1.1//EN" "http://www.w3.org/Graphics/SVG/1.1/DTD/svg11.dtd"><svg xmlns="http://www.w3.org/2000/svg" xmlns:xlink="http://www.w3.org/1999/xlink"><defs/><symbol id="tv-grid" viewBox="0 0 58 48"><path class="st0" fill="#38454f" d="M0 .5h58v38H0z"/><path class="st1" d="M14 16.5h-3c-.6 0-1-.5-1-1v-2.9c0-.6.5-1 1-1h3c.6 0 1 .5 1 1v2.9c0 .5-.5 1-1 1z" fill="#61b872"/><path class="st2" d="M25 16.5h-3c-.6 0-1-.5-1-1v-2.9c0-.6.5-1 1-1h3c.6 0 1 .5 1 1v2.9c0 .5-.5 1-1 1z" fill="#48a0dc"/><path class="st3" d="M36 16.5h-3c-.6 0-1-.5-1-1v-2.9c0-.6.5-1 1-1h3c.6 0 1 .5 1 1v2.9c0 .5-.5 1-1 1z" fill="#ebba16"/><path class="st4" d="M47 16.5h-3c-.6 0-1-.5-1-1v-2.9c0-.6.5-1 1-1h3c.6 0 1 .5 1 1v2.9c0 .5-.5 1-1 1z" fill="#bf4d90"/><path class="st5" d="M14 27.5h-3c-.6 0-1-.5-1-1v-2.9c0-.6.5-1 1-1h3c.6 0 1 .5 1 1v2.9c0 .5-.5 1-1 1z" fill="#dd352e"/><path class="st6" d="M25 27.5h-3c-.6 0-1-.5-1-1v-2.9c0-.6.5-1 1-1h3c.6 0 1 .5 1 1v2.9c0 .5-.5 1-1 1z" fill="#a4e869"/><path class="st7" d="M36 27.5h-3c-.6 0-1-.5-1-1v-2.9c0-.6.5-1 1-1h3c.6 0 1 .5 1 1v2.9c0 .5-.5 1-1 1z" fill="#50508a"/><path class="st8" d="M47 27.5h-3c-.6 0-1-.5-1-1v-2.9c0-.6.5-1 1-1h3c.6 0 1 .5 1 1v2.9c0 .5-.5 1-1 1z" fill="#be7c6d"/><path class="st9" fill="#afb6bb" d="M30 44.5v-6h-2v6H15v3h28v-3z"/></symbol></svg>